<svg width="200" height="44" fill="none" xmlns="http://www.w3.org/2000/svg"><g clip-path="url(#a)" fill="#fff"><path d="M172.435 43.5444V11.9742h-9.694v1.4011c-1.541-1.3693-3.681-2.1526-6.617-2.1526-4.326 0-8.474 1.7184-11.533 4.7772a16.3105 16.3105 0 0 0-4.778 11.5333c0 4.3258 1.719 8.4745 4.778 11.5333a16.3099 16.3099 0 0 0 11.533 4.7772c2.936 0 5.095-.7897 6.617-2.1526v1.8724l9.694-.0191Zm-16.311-9.4131a6.6183 6.6183 0 0 1-3.675-1.1143 6.615 6.615 0 0 1-2.437-2.9677 6.6215 6.6215 0 0 1-.379-3.8215 6.616 6.616 0 0 1 1.807-3.3883 6.6246 6.6246 0 0 1 3.385-1.8139 6.6206 6.6206 0 0 1 3.823.3713 6.6204 6.6204 0 0 1 2.972 2.4316 6.6177 6.6177 0 0 1 1.121 3.6729 6.6321 6.6321 0 0 1-1.937 4.6835 6.6314 6.6314 0 0 1-4.68 1.9464ZM137.068 43.5441v-21.049c0-9.6042-11.253-15.2278-19.329-8.0311a20.3658 20.3658 0 0 0-1.828 1.8215c-3.509-5.3816-11.413-7.254-17.5077-1.8215v-2.4902h-9.6806v31.5703h9.6933V23.2594a4.8149 4.8149 0 0 1 4.815-4.8148c1.277 0 2.501.5072 3.404 1.4102a4.8152 4.8152 0 0 1 1.411 3.4046v20.2847h9.693V23.2594a4.8218 4.8218 0 0 1 1.471-3.2953 4.8235 4.8235 0 0 1 3.347-1.3507c1.248 0 2.448.4842 3.347 1.3507a4.8218 4.8218 0 0 1 1.471 3.2953v20.2847h9.693ZM85.9785 11.9736h-9.6933v31.5703h9.6933V11.9736ZM63.8469 23.2594v20.2847h9.687v-21.049c0-9.6042-11.2537-15.2278-19.323-8.0311v-2.4902h-9.6933v31.5703h9.6933V23.2594a4.8213 4.8213 0 0 1 9.636 0Z"/><path d="M27.2576 43.5441a14.5524 14.5524 0 0 0 14.5145-14.5082V13.6043L55.3632.0005h-1.6941l-11.897 11.9097v-1.675L51.9941.0005h-1.6814L41.7721 8.541V6.6304l6.6299-6.63h-1.7004l-4.9295 4.936V3.0702L44.8355.0005h-1.6877l-1.3757 1.3757V.3635h-9.6933V11.076l-9.6361 9.6424V.3635h-9.706v28.6597c0 .4458 0 .8789.0636 1.3183L-.001 43.1747h1.6941l11.3302-11.3301c.1019.5095.2292 1.0063.3757 1.4903l-9.8462 9.8398H5.247l8.6107-8.6106c.1882.4362.4008.8614.6369 1.2737l-7.337 7.3369h1.6942l6.2478-6.2351c.2229.3376.4522.6369.7006.9745l-5.2798 5.2797h1.6941l4.3436-4.3435a14.4816 14.4816 0 0 0 10.6996 4.6938Zm4.8212-14.5082a4.8346 4.8346 0 0 1-1.4158 3.3991 4.8346 4.8346 0 0 1-3.3991 1.4158 4.7892 4.7892 0 0 1-3.8213-1.9107l8.6362-8.6361v5.7319Zm-9.6361-6.6235 9.6361-9.6424v1.8788l-9.6361 9.6296v-1.866Zm0 3.5601 9.6361-9.6424v1.9107l-9.6361 9.6424v-1.9107Zm0 3.5729 9.6361-9.6105v1.675l-9.2667 9.2666a4.6566 4.6566 0 0 1-.3439-1.3311h-.0255ZM192.649 19.4699l7.286-7.2923.045-.0764a11.0347 11.0347 0 0 0-1.274-.7579c-4.541-2.3373-10.037-1.1464-13.852 3.1207v-2.4902h-9.674v31.5703h9.693V23.2594a4.8333 4.8333 0 0 1 1.427-3.3849 4.8348 4.8348 0 0 1 3.394-1.4045c.161-.0095.323-.0095.484 0l.21.0319h.09c.504.083.992.2464 1.445.484.255.1418.498.3036.726.484Z"/></g><defs><clipPath id="a"><path fill="#fff" d="M0 0h200v43.8238H0z"/></clipPath></defs></svg>